<?xml version="1.0" encoding="utf-8"?>
<!-- Generator: Adobe Illustrator 20.1.0, SVG Export Plug-In . SVG Version: 6.00 Build 0)  -->
<!DOCTYPE svg PUBLIC "-//W3C//DTD SVG 1.1//EN" "http://www.w3.org/Graphics/SVG/1.1/DTD/svg11.dtd">
<svg version="1.1" xmlns="http://www.w3.org/2000/svg" xmlns:xlink="http://www.w3.org/1999/xlink" x="0px" y="0px"
	 viewBox="0 0 1280 350.3" style="enable-background:new 0 0 1280 350.3;" xml:space="preserve">
<style type="text/css">
	.st0{fill:#FFFFFF;}
	.st1{fill:none;}
	.st2{fill:#462587;}
	.st3{font-family:'Soleil-Bold';}
	.st4{font-size:46px;}
	.st5{fill:#848484;}
	.st6{font-family:'Roboto-Bold';}
	.st7{font-size:19px;}
	.st8{fill:#4F4F4F;stroke:#444444;stroke-width:1.5;stroke-miterlimit:10;}
	.st9{fill:#4F4F4F;stroke:#636363;stroke-miterlimit:10;}
	.st10{fill:#4F4F4F;stroke:#848484;stroke-width:1.5;stroke-miterlimit:10;}
</style>
<g id="copy">
	<path class="st0" d="M850.6,262H437c-6.6,0-12-5.4-12-12v-31.1c0-6.6,5.4-12,12-12h413.6c6.6,0,12,5.4,12,12V250
		C862.6,256.6,857.2,262,850.6,262z"/>
</g>
<g id="sec3">
	<g>
		<rect x="230.8" y="109.9" class="st1" width="386.5" height="35.1"/>
		<text transform="matrix(1 0 0 1 230.7504 144.3922)" class="st2 st3 st4">Agency Reviews</text>
	</g>
	<rect x="444.2" y="230" class="st1" width="204.6" height="23"/>
	<text transform="matrix(1 0 0 1 444.2367 244.25)" class="st5 st6 st7">Search agencies...</text>
	<line class="st8" x1="429.7" y1="260" x2="849.7" y2="260"/>
	<g>
		<path class="st9" d="M822.8,241.5c1.6,0,3.1-0.6,4.2-1.5l5.1,5.1c0.1,0.1,0.3,0.2,0.4,0.2c0.2,0,0.3-0.1,0.4-0.2
			c0.2-0.2,0.2-0.6,0-0.8l-5.1-5.1c1-1.1,1.5-2.6,1.5-4.2c0-3.6-3-6.6-6.6-6.6c-3.6,0-6.6,3-6.6,6.6
			C816.2,238.5,819.2,241.5,822.8,241.5z M822.8,229.5c3,0,5.4,2.4,5.4,5.4c0,3-2.4,5.4-5.4,5.4c-3,0-5.4-2.4-5.4-5.4
			S819.8,229.5,822.8,229.5z"/>
	</g>
	<line class="st10" x1="799.8" y1="223" x2="799.8" y2="251"/>
</g>
<g id="ogilvy_1_">
</g>
</svg>
